PathFileType	4	(X/Y/Z)	Kaydara	
DataRate	CameraRate	NumFrames	NumMarkers	Units	OrigDataRate	OrigDataStartFrame	OrigNumFrames	
60.00	60.00	4	74	mm	60.00	553	227	
Frame#	Time	N_lasi			N_rasi			N_rpsi			N_lpsi			N_fneck			N_bneck			N_fhead			N_rhead			N_lhead			N_rshld			N_relbtop			N_relbext			N_relblow			N_rwrext			N_rwrtop			N_rwrlow			N_lshld			N_lelbext			N_lelbtop			N_lwrext			N_lwrtop			N_lwrlow			N_rtopleg			N_ltopleg			N_rkneefr			N_rkneebk			N_rkneeis			N_lkneefr			N_lknssbk			N_lkneeis			N_rankfr			N_rankis			N_rankbk			N_lankfr			N_lankbk			N_lankis			Z_lasi			Z_rasi			Z_rpsi			Z_lpsi			Z_fneck			Z_bneck			Z_fhead			Z_rhead			Z_lhead			Z_rshld			Z_relbtop			Z_relbext			Z_relblow			Z_rwrext			Z_rwrtop			Z_rwrlow			Z_lshld			Z_lelbext			Z_lelblow			Z_lelbtop			Z_lwrext			Z_lwrtop			Z_lwrlow			Z_rtopleg			Z_ltopleg			Z_rkneefr			Z_rkneebk			Z_rkneeis			Z_lkneefr			Z_lknssbk			Z_lkneeis			Z_rankfr			Z_rankis			Z_lankfr			Z_lankbk			Z_lankis			N_lelblow			Z_rankbk			
		X1	Y1	Z1	X2	Y2	Z2	X3	Y3	Z3	X4	Y4	Z4	X5	Y5	Z5	X6	Y6	Z6	X7	Y7	Z7	X8	Y8	Z8	X9	Y9	Z9	X10	Y10	Z10	X11	Y11	Z11	X12	Y12	Z12	X13	Y13	Z13	X14	Y14	Z14	X15	Y15	Z15	X16	Y16	Z16	X17	Y17	Z17	X18	Y18	Z18	X19	Y19	Z19	X20	Y20	Z20	X21	Y21	Z21	X22	Y22	Z22	X23	Y23	Z23	X24	Y24	Z24	X25	Y25	Z25	X26	Y26	Z26	X27	Y27	Z27	X28	Y28	Z28	X29	Y29	Z29	X30	Y30	Z30	X31	Y31	Z31	X32	Y32	Z32	X33	Y33	Z33	X34	Y34	Z34	X35	Y35	Z35	X36	Y36	Z36	X37	Y37	Z37	X38	Y38	Z38	X39	Y39	Z39	X40	Y40	Z40	X41	Y41	Z41	X42	Y42	Z42	X43	Y43	Z43	X44	Y44	Z44	X45	Y45	Z45	X46	Y46	Z46	X47	Y47	Z47	X48	Y48	Z48	X49	Y49	Z49	X50	Y50	Z50	X51	Y51	Z51	X52	Y52	Z52	X53	Y53	Z53	X54	Y54	Z54	X55	Y55	Z55	X56	Y56	Z56	X57	Y57	Z57	X58	Y58	Z58	X59	Y59	Z59	X60	Y60	Z60	X61	Y61	Z61	X62	Y62	Z62	X63	Y63	Z63	X64	Y64	Z64	X65	Y65	Z65	X66	Y66	Z66	X67	Y67	Z67	X68	Y68	Z68	X69	Y69	Z69	X70	Y70	Z70	X71	Y71	Z71	X72	Y72	Z72	X73	Y73	Z73	X74	Y74	Z74	

29	9.200	127.51974	1039.88548	-793.91991	251.38975	1046.52000	-982.33200	442.83878	1104.45641	-831.59348	284.36865	1093.95767	-651.38931	184.75222	1510.55450	-896.30753	279.45599	1591.15952	-822.49496	45.04703	1679.90936	-917.11601	215.79433	1728.73260	-934.85611	155.60217	1714.14200	-790.48378	402.01782	1484.20624	-999.74617	524.86244	1194.75487	-1000.21339	449.59183	1177.63771	-950.13016	456.85356	1191.66321	-1027.14378	487.15759	947.43851	-1078.63098	459.36996	963.41194	-1118.90488	416.92177	963.40172	-1099.87816	99.15821	1499.72794	-684.63730	-23.70818	1188.19046	-766.19217	5.29236	1231.23207	-714.08287	-21.09394	1060.84900	-899.61777	-23.16042	1102.36130	-933.47031	25.85097	1103.91197	-941.18065	419.34162	926.85341	-993.09525	170.99781	898.93234	-674.18045	253.80817	507.21458	-1079.89639	347.02557	554.70222	-1024.01810	254.32629	516.18725	-965.70724	276.01791	475.62202	-861.92673	268.16479	489.67850	-753.00491	375.39814	505.64072	-821.19049	380.82577	227.44549	-1015.45776	374.72816	237.54553	-943.79066	439.87164	244.82296	-987.42989	331.48685	156.03838	-835.17929	419.62006	174.40388	-797.58110	389.89586	177.91525	-869.06357	-736.34300	967.01424	867.10953	-759.93813	975.13206	1097.34390	-949.66759	1032.58324	1063.41881	-930.10368	1020.64087	870.94116	-704.17679	1415.09354	922.47757	-797.27539	1492.98141	926.92482	-569.35242	1539.59824	928.89999	-731.35788	1610.21820	1003.96065	-734.84795	1603.19046	874.21768	-816.14212	1379.98581	1166.09047	-885.62508	1089.26353	1233.45566	-864.33334	1075.14221	1167.10312	-803.66913	1113.57018	1238.40042	-773.24219	851.48949	1263.57040	-730.39772	864.56070	1273.55431	-718.76083	874.69711	1229.70825	-785.44128	1370.70999	731.18927	-845.27283	1048.54309	781.06400	-803.34991	1064.50821	697.95052	-881.39900	1046.54114	716.41495	-815.41039	832.70004	689.45297	-773.18680	839.87778	685.28488	-765.25681	839.04922	730.68932	-877.95662	868.84094	1162.45995	-803.47404	890.54947	812.71744	-869.98886	399.41235	1149.29161	-932.76184	458.43758	1184.32190	-907.23854	442.69840	1064.95872	-647.08504	409.43134	936.21353	-708.33862	416.42159	875.89043	-743.16162	422.07085	990.04318	-1076.08810	212.47921	1099.04007	-1106.68480	251.20594	1036.69724	-673.12332	161.11259	996.13602	-708.78204	145.23865	927.29561	-746.44814	146.62631	983.13858	70.51997	1217.90573	-753.58421	-1140.57907	255.14906	1100.80833 
30	9.217	118.26072	1038.85109	-798.20938	236.35752	1045.04417	-989.71420	432.34161	1103.55988	-844.54941	278.94117	1093.26958	-659.86351	173.04598	1508.81195	-904.61021	268.87331	1590.03860	-833.31711	32.73304	1676.98868	-925.51949	202.90329	1727.34238	-944.32297	143.75754	1712.44720	-799.48586	387.52655	1481.18027	-1012.36275	510.74886	1191.96388	-1013.03169	439.98718	1175.83252	-959.96391	442.21382	1188.75435	-1038.96286	470.67394	944.50409	-1090.31670	442.03896	960.52193	-1129.88152	399.94522	960.55176	-1110.04242	91.93035	1500.04379	-690.83076	-33.56877	1190.17517	-772.22359	-4.18212	1233.18390	-719.19380	-33.85645	1070.72227	-910.30533	-36.10306	1113.17764	-942.23122	12.72031	1115.44571	-950.77217	403.00579	926.01395	-1005.76904	166.20735	898.27286	-677.75330	228.36754	509.11949	-1088.28430	325.42992	550.25856	-1034.98138	234.31341	513.73657	-973.74947	271.61707	473.86627	-862.96257	266.16171	489.42970	-754.06105	372.03827	505.81608	-823.82187	342.81116	221.02640	-1044.99306	341.14384	227.16063	-971.86859	404.92050	233.96202	-1021.34071	331.23882	155.75871	-834.61189	417.80060	173.76850	-798.15247	389.99058	177.82763	-868.46306	-722.59590	967.80777	863.32375	-743.92563	976.61705	1094.58260	-935.22469	1033.19748	1060.24841	-915.73845	1020.60997	867.89627	-690.45647	1416.46271	917.94563	-783.15926	1494.55246	923.31558	-555.64903	1540.91843	922.12799	-716.67175	1612.27264	998.54401	-721.45027	1604.14734	868.88710	-797.99103	1382.11212	1163.11790	-870.01587	1091.86699	1230.30716	-848.52989	1077.95250	1164.02351	-787.38846	1115.58464	1235.22720	-759.55620	852.89978	1259.78165	-716.72852	865.52856	1269.50554	-705.12772	875.67360	1225.62584	-773.09853	1372.02225	728.04047	-829.68819	1049.20609	778.34808	-788.18413	1065.62225	695.22423	-866.10168	1046.76750	713.85262	-797.10457	833.83804	686.82007	-755.15656	841.42036	682.54425	-747.02408	840.57610	727.96867	-858.56735	870.45509	1160.10292	-790.88966	890.15656	809.57115	-837.92320	401.81915	1154.28871	-899.67125	461.35338	1190.88776	-875.95879	445.91877	1071.23810	-638.70438	407.77187	935.67734	-700.76660	415.47630	875.19638	-734.40224	422.88727	989.55078	-1050.48767	220.73103	1105.91637	-1081.03432	261.32265	1044.20250	-669.97765	160.89222	995.41779	-706.46332	145.37704	927.32903	-743.62534	147.88102	983.37311	60.27328	1219.92355	-760.53627	-1113.88443	265.33373	1109.34891 
31	9.233	108.60115	1037.50664	-801.82533	221.36000	1043.22525	-996.91101	421.75327	1102.37411	-857.20932	273.60613	1092.36717	-668.30887	160.95869	1506.56876	-912.98187	257.86629	1588.57208	-844.07425	19.84606	1673.79120	-933.94180	189.60508	1725.51193	-953.64784	131.43019	1710.30258	-808.50952	372.66048	1477.91290	-1024.91943	496.09985	1188.69759	-1026.08208	427.34394	1172.94075	-972.14447	427.01508	1185.46448	-1050.66093	454.04861	941.13327	-1101.62247	424.66991	957.05696	-1140.57602	382.97070	957.15706	-1119.83116	84.41418	1499.94934	-697.24403	-42.86360	1191.17584	-777.16537	-13.26049	1234.09706	-723.74352	-46.32528	1078.72284	-919.46930	-48.91072	1122.39342	-949.55574	-0.21131	1124.98917	-958.54012	386.82270	924.36058	-1018.14751	160.83050	897.43790	-681.32286	203.51610	510.76355	-1095.60219	304.30008	545.36209	-1044.69772	214.57615	511.21292	-981.15913	267.17394	472.68635	-864.51599	263.24331	489.05190	-756.09695	368.19965	506.21490	-827.20192	302.85070	215.70559	-1072.59758	304.27208	217.93121	-999.30122	366.35754	223.93789	-1050.67345	330.00290	155.59155	-834.76730	417.27165	174.97028	-799.43924	388.73692	178.01172	-869.49509	-708.92319	968.48907	859.85077	-728.37814	978.54179	1092.71858	-921.25542	1033.73817	1056.62277	-901.61278	1020.81093	864.47083	-677.16942	1418.05191	913.81752	-769.77951	1496.32584	919.77013	-541.83968	1542.18536	915.80589	-702.41020	1614.17679	993.58383	-708.24448	1605.55817	864.00864	-780.64331	1384.11865	1160.07629	-853.33405	1094.24782	1228.30185	-832.73102	1080.04059	1161.76880	-770.78285	1117.16995	1232.37389	-745.58952	853.95782	1256.17966	-702.46750	866.07254	1265.58098	-691.26976	876.23589	1221.62514	-761.58119	1373.39523	725.04715	-814.58557	1049.97559	775.49988	-773.65585	1066.94321	692.44591	-851.29463	1046.99463	711.15540	-778.98201	835.21751	684.30817	-737.00500	843.46321	679.91676	-728.54813	842.82822	725.34416	-839.13071	872.74681	1157.99583	-779.65385	889.96986	807.39052	-806.21101	405.09594	1157.97440	-867.31415	465.76561	1195.12314	-845.62218	449.66423	1075.89394	-632.57637	406.88087	934.63417	-694.80843	415.02922	874.48425	-727.33994	423.88374	989.14063	-1023.38379	228.94150	1112.20100	-1054.07852	270.13357	1050.95825	-667.66434	160.71163	995.65071	-704.62563	145.55934	927.47894	-741.57021	148.99892	983.51578	50.76200	1221.01151	-765.87006	-1085.59128	274.68016	1116.77780 
32	9.250	98.96626	1035.90004	-805.24170	206.38258	1041.08360	-1003.76900	411.19305	1100.98007	-869.78500	268.31060	1091.42456	-677.03995	148.49545	1503.87787	-921.30531	246.43429	1586.81580	-854.80019	6.57751	1670.32745	-942.11189	175.80502	1723.15842	-963.10173	118.69126	1707.85660	-817.50710	357.37354	1474.47922	-1037.35558	480.93773	1185.30212	-1039.01268	414.25510	1169.86572	-984.08554	411.26625	1181.89232	-1062.15797	437.49535	937.36954	-1112.57126	407.14439	953.15491	-1150.90927	365.91118	953.19839	-1129.25735	76.43123	1499.35699	-703.86292	-52.12260	1191.26976	-782.32567	-22.01564	1234.13956	-727.71866	-58.53446	1085.04318	-926.98166	-61.44490	1129.49203	-955.61981	-12.93893	1132.30309	-965.16457	370.78495	922.17148	-1029.74380	154.52135	896.97227	-685.09529	179.39703	512.17518	-1102.06566	283.90615	540.23369	-1054.23744	195.63955	508.67561	-987.84035	261.79874	471.40041	-867.17682	259.46728	488.70750	-758.75877	363.46622	506.57742	-831.44882	260.94784	212.12626	-1097.84775	264.98592	210.50892	-1024.54346	325.42828	215.33543	-1077.78854	328.73493	155.22998	-835.48256	416.29467	176.09671	-800.81696	387.68715	178.34963	-870.96024	-695.49362	969.47357	856.42105	-713.06541	981.31035	1090.88417	-907.17247	1034.47952	1053.93860	-887.74719	1021.72653	861.50436	-664.24820	1419.71848	909.82773	-756.52397	1498.21548	916.31271	-528.41789	1543.40057	910.28877	-688.40057	1616.30981	988.86002	-695.20721	1607.13409	859.42848	-764.06944	1385.71487	1157.12318	-836.46477	1096.23474	1226.87050	-816.72226	1081.43387	1159.89235	-753.50075	1118.38806	1229.45023	-730.93613	854.66980	1253.04787	-687.90871	866.48750	1261.87599	-677.28645	876.45485	1217.70889	-750.40237	1375.11414	721.86348	-799.94423	1051.04782	772.40257	-759.89281	1068.74649	689.47540	-837.01279	1047.47818	708.28659	-760.66971	836.96953	681.68823	-718.87894	846.02097	677.35146	-710.29999	845.64041	722.50656	-819.87854	875.33211	1156.34399	-767.88078	890.95886	804.49997	-775.08438	409.03175	1160.71312	-835.62935	469.93469	1197.45895	-815.77957	452.86919	1078.98682	-627.15210	406.65863	932.93762	-689.83253	415.00725	872.46262	-721.52534	424.58916	987.96906	-996.07834	235.70019	1118.29483	-1026.87759	277.47448	1057.36961	-665.74745	160.80996	995.51010	-703.33328	145.82174	927.18300	-739.73038	149.77468	983.68713	40.99913	1221.15700	-772.21558	-1057.50832	282.85267	1123.55408 
